{"title":"300 Rise Of An Empire (2014) Unrated BRrip 720p x264 Dual Audio","uid":10979600,"size":1377287244,"categoryP":"video","categoryS":"hd___movies","magnet":"?xt=urn:btih:26265ba284889f98461e4e2d4a31311e5af11886&amp;dn=300+Rise+Of+An+Empire+%282014%29+Unrated+BRrip+720p+x264+Dual+Audio+&amp;tr=udp%3A%2F%2Ftracker.openbittorrent.com%3A80&amp;tr=udp%3A%2F%2Fopen.demonii.com%3A1337&amp;tr=udp%3A%2F%2Ftracker.coppersurfer.tk%3A6969&amp;tr=udp%3A%2F%2Fexodus.desync.com%3A6969","seeders":15,"leechers":9,"uploader":"Xdesiars","files":5,"time":1409857569,"description":"Format                                   : Matroska\nFormat version                           : Version 2\nFile size                                : 1.27 GiB\nDuration                                 : 1h 42mn\nOverall bit rate                         : 1 776 Kbps\nMovie name                               : 300 Rise Of An Empire (2014) by XdesiArsenal [ExD-XMR]\nEncoded date                             : UTC 2014-09-04 15:31:44\nWriting application                      : mkvmerge v5.0.1 ('Es ist Sommer') built on Nov 23 2011 20:48:57\nWriting library                          : libebml v1.2.2 + libmatroska v1.3.0\n\nVideo\nID                                       : 1\nFormat                                   : AVC\nFormat/Info                              : Advanced Video Codec\nFormat profile                           : &lt;a class=&quot;__cf_email__&quot; href=&quot;/cdn-cgi/l/email-protection&quot; data-cfemail=&quot;0f426e66614f433c213e&quot;&gt;[email&amp;#160;protected]&lt;/a&gt;&lt;script cf-hash='f9e31' type=&quot;text/javascript&quot;&gt;\n/* &lt;![CDATA[ */!function(){try{var t=&quot;currentScript&quot;in document?document.currentScript:function(){for(var t=document.getElementsByTagName(&quot;script&quot;),e=t.length;e--;)if(t[e].getAttribute(&quot;cf-hash&quot;))return t[e]}();if(t&amp;&amp;t.previousSibling){var e,r,n,i,c=t.previousSibling,a=c.getAttribute(&quot;data-cfemail&quot;);if(a){for(e=&quot;&quot;,r=parseInt(a.substr(0,2),16),n=2;a.length-n;n+=2)i=parseInt(a.substr(n,2),16)^r,e+=String.fromCharCode(i);e=document.createTextNode(e),c.parentNode.replaceChild(e,c)}}}catch(u){}}();/* ]]&gt; */&lt;/script&gt;\nFormat settings, CABAC                   : Yes\nFormat settings, ReFrames                : 4 frames\nMuxing mode                              : Header stripping\nCodec ID                                 : V_MPEG4/ISO/AVC\nDuration                                 : 1h 42mn\nBit rate                                 : 1 260 Kbps\nWidth                                    : 1 280 pixels\nHeight                                   : 528 pixels\nDisplay aspect ratio                     : 2.40:1\nFrame rate mode                          : Constant\nFrame rate                               : 23.976 fps\nColor space                              : YUV\nChroma subsampling                       : 4:2:0\nBit depth                                : 8 bits\nScan type                                : Progressive\nBits/(Pixel*Frame)                       : 0.078\nStream size                              : 925 MiB (71%)\nTitle                                    : 300 Rise Of An Empire (2014) by XdesiArsenal [ExD-XMR]\nWriting library                          : x264 core 112\nLanguage                                 : English\nDefault                                  : Yes\nForced                                   : No\nColor primaries                          : BT.709\nTransfer characteristics                 : BT.709\nMatrix coefficients                      : BT.709\n\nAudio #1\nID                                       : 2\nFormat                                   : AC-3\nFormat/Info                              : Audio Coding 3\nMode extension                           : CM (complete main)\nFormat settings, Endianness              : Big\nMuxing mode                              : Header stripping\nCodec ID                                 : A_AC3\nDuration                                 : 1h 42mn\nBit rate mode                            : Constant\nBit rate                                 : 256 Kbps\nChannel(s)                               : 6 channels\nChannel positions                        : Front: L C R, Side: L R, LFE\nSampling rate                            : 48.0 KHz\nBit depth                                : 16 bits\nCompression mode                         : Lossy\nStream size                              : 188 MiB (14%)\nTitle                                    : XdesiArsenal\nLanguage                                 : English\nDefault                                  : No\nForced                                   : No\n\nAudio #2\nID                                       : 3\nFormat                                   : AC-3\nFormat/Info                              : Audio Coding 3\nMode extension                           : CM (complete main)\nFormat settings, Endianness              : Big\nMuxing mode                              : Header stripping\nCodec ID                                 : A_AC3\nDuration                                 : 1h 42mn\nBit rate mode                            : Constant\nBit rate                                 : 224 Kbps\nChannel(s)                               : 6 channels\nChannel positions                        : Front: L C R, Side: L R, LFE\nSampling rate                            : 48.0 KHz\nBit depth                                : 16 bits\nCompression mode                         : Lossy\nStream size                              : 164 MiB (13%)\nTitle                                    : XdesiArsenal\nLanguage                                 : Hindi\nDefault                                  : Yes\nForced                                   : No\n\nMenu\n00:00:00.000                             : en:Chapter 1\n00:10:26.459                             : en:Chapter 2\n00:20:54.754                             : en:Chapter 3\n00:31:15.374                             : en:Chapter 4\n00:40:58.581                             : en:Chapter 5\n00:50:50.798                             : en:Chapter 6\n01:00:05.519                             : en:Chapter 7\n01:09:51.896                             : en:Chapter 8\n01:19:51.245                             : en:Chapter 9\n01:31:07.379                             : en:Chapter 10\n01:33:57.257                             : en:Chapter 11\n","torrent":{"xt":"urn:btih:26265ba284889f98461e4e2d4a31311e5af11886","amp;dn":"300+Rise+Of+An+Empire+%282014%29+Unrated+BRrip+720p+x264+Dual+Audio+","amp;tr":["udp%3A%2F%2Ftracker.openbittorrent.com%3A80","udp%3A%2F%2Fopen.demonii.com%3A1337","udp%3A%2F%2Ftracker.coppersurfer.tk%3A6969","udp%3A%2F%2Fexodus.desync.com%3A6969"],"infoHash":"26265ba284889f98461e4e2d4a31311e5af11886","infoHashBuffer":{"type":"Buffer","data":[38,38,91,162,132,136,159,152,70,30,78,45,74,49,49,30,90,241,24,134]},"announce":[],"urlList":[]}}